<svg xmlns="http://www.w3.org/2000/svg" viewBox="0 0 433.84 433.49"><defs><style>.cls-1{fill:#ff6720;}.cls-2{fill:#d9d8d7;}.cls-3{fill:#78bd43;}.cls-4{fill:#0072ce;}.cls-5{fill:#00ab8e;}.cls-6{fill:#582c83;}.cls-7{fill:#e0457b;}</style></defs><title>private</title><g id="Layer_2" data-name="Layer 2"><g id="Layer_1-2" data-name="Layer 1"><path class="cls-1" d="M237.7,291.44a60.32,60.32,0,0,0,1.37-19.82H177.89c-34.41,0-63.12-27.32-63.64-61.72a62.76,62.76,0,0,1,62.68-63.67H256c34.48,0,63.17,27.47,63.57,61.94a62.45,62.45,0,0,1-38.91,58.77c-5.15,15.57-19.77,26.67-31.17,33.25L237.77,307a2.13,2.13,0,0,1-3.14-2.33Z"/><path class="cls-2" d="M111.74,42.34a7.06,7.06,0,0,0,3.53-1,201.17,201.17,0,0,1,21-10.62,7.06,7.06,0,1,0-5.62-12.95,216.41,216.41,0,0,0-22.5,11.36,7.06,7.06,0,0,0,3.55,13.16Z"/><path class="cls-2" d="M251.82,17.11a200.55,200.55,0,0,1,22.95,5.37,7,7,0,0,0,2,.3,7.06,7.06,0,0,0,2-13.83A217.68,217.68,0,0,0,254.23,3.2a7.06,7.06,0,1,0-2.41,13.91Z"/><path class="cls-2" d="M204.38,14.48h.42c4-.23,8.08-.35,12.1-.35h0c3.82,0,7.68.1,11.47.32a7.06,7.06,0,0,0,.79-14.1C225.12.12,221,0,216.92,0h0c-4.3,0-8.65.13-12.93.38a7.06,7.06,0,0,0,.41,14.1Z"/><path class="cls-2" d="M419.43,161.23a7.06,7.06,0,0,0-5.23,8.5,202.41,202.41,0,0,1,4.12,23.21,7.05,7.05,0,0,0,7,6.24,7.86,7.86,0,0,0,.83-.05,7.07,7.07,0,0,0,6.19-7.84,219.44,219.44,0,0,0-4.41-24.83A7.05,7.05,0,0,0,419.43,161.23Z"/><path class="cls-2" d="M407.55,286.28a7.06,7.06,0,0,0,13.26,4.83A217.29,217.29,0,0,0,428,266.93a7.06,7.06,0,1,0-13.74-3.25A202.27,202.27,0,0,1,407.55,286.28Z"/><path class="cls-2" d="M296.94,30.51A204.51,204.51,0,0,1,318,41.08a7.06,7.06,0,0,0,7-12.23,214.91,214.91,0,0,0-22.56-11.3,7.05,7.05,0,1,0-5.57,13Z"/><path class="cls-2" d="M11.09,258.66a7,7,0,0,0-5.24,8.49,213.71,213.71,0,0,0,7.25,24.16,7.06,7.06,0,1,0,13.26-4.84,200.83,200.83,0,0,1-6.78-22.58A7,7,0,0,0,11.09,258.66Z"/><path class="cls-2" d="M156.41,23a7.2,7.2,0,0,0,2-.3,202.15,202.15,0,0,1,22.93-5.45,7.06,7.06,0,0,0-2.45-13.9,216.8,216.8,0,0,0-24.55,5.83,7.06,7.06,0,0,0,2,13.82Z"/><path class="cls-2" d="M426.78,209.41a7.06,7.06,0,0,0-7.06,7.06v.45a207.4,207.4,0,0,1-1.35,23.54,7,7,0,0,0,6.2,7.82,5.64,5.64,0,0,0,.82.05,7.06,7.06,0,0,0,7-6.25,219.63,219.63,0,0,0,1.45-25.16v-.45A7.07,7.07,0,0,0,426.78,209.41Z"/><path class="cls-2" d="M252.24,416.65a201.57,201.57,0,0,1-23.42,2.72,7.06,7.06,0,0,0,.4,14.11h.41a220.52,220.52,0,0,0,25.05-2.91,7.06,7.06,0,0,0-2.44-13.91Z"/><path class="cls-2" d="M205.23,419.39a206,206,0,0,1-23.42-2.7,7.06,7.06,0,1,0-2.43,13.91,220.47,220.47,0,0,0,25.05,2.88h.41a7.06,7.06,0,0,0,.39-14.1Z"/><path class="cls-2" d="M158.86,411.29a200.86,200.86,0,0,1-22.16-8.06,7.06,7.06,0,0,0-5.59,13,214.54,214.54,0,0,0,23.72,8.61,7.05,7.05,0,1,0,4-13.52Z"/><path class="cls-2" d="M7.63,199.8a7.32,7.32,0,0,0,.81,0,7,7,0,0,0,7-6.25,202.15,202.15,0,0,1,4-23.23,7.06,7.06,0,0,0-13.74-3.23A216.94,216.94,0,0,0,1.42,192,7.06,7.06,0,0,0,7.63,199.8Z"/><path class="cls-2" d="M297.33,403.15a201.56,201.56,0,0,1-22.15,8.08,7.06,7.06,0,0,0,2,13.82,7.18,7.18,0,0,0,2-.3,215.14,215.14,0,0,0,23.7-8.64,7.06,7.06,0,1,0-5.6-13Z"/><path class="cls-2" d="M9.3,248.51a7.07,7.07,0,0,0,6.19-7.83,205.3,205.3,0,0,1-1.37-23.55,7.07,7.07,0,0,0-7.06-7h0a7.07,7.07,0,0,0-7,7.07,219.64,219.64,0,0,0,1.47,25.16,7.05,7.05,0,0,0,7,6.24A7.81,7.81,0,0,0,9.3,248.51Z"/><path class="cls-3" d="M82.07,66.16A26.74,26.74,0,1,1,55.34,39.43,26.76,26.76,0,0,1,82.07,66.16Z"/><path class="cls-4" d="M87,109V137a4.24,4.24,0,0,1-4.24,4.24H27.9A4.24,4.24,0,0,1,23.66,137V109A11.75,11.75,0,0,1,35.4,97.29H75.27A11.75,11.75,0,0,1,87,109Z"/><path class="cls-3" d="M404.66,66.16a26.73,26.73,0,1,1-26.73-26.73A26.76,26.76,0,0,1,404.66,66.16Z"/><path class="cls-5" d="M409.6,109V137a4.24,4.24,0,0,1-4.23,4.24H350.49a4.23,4.23,0,0,1-4.23-4.24V109A11.74,11.74,0,0,1,358,97.29h39.87A11.74,11.74,0,0,1,409.6,109Z"/><path class="cls-3" d="M82.07,329.77A26.74,26.74,0,1,1,55.34,303,26.77,26.77,0,0,1,82.07,329.77Z"/><path class="cls-6" d="M87,372.64v27.94a4.23,4.23,0,0,1-4.24,4.23H27.9a4.23,4.23,0,0,1-4.24-4.23V372.64A11.75,11.75,0,0,1,35.4,360.9H75.27A11.75,11.75,0,0,1,87,372.64Z"/><path class="cls-3" d="M404.66,329.77A26.73,26.73,0,1,1,377.93,303,26.77,26.77,0,0,1,404.66,329.77Z"/><path class="cls-7" d="M409.6,372.64v27.94a4.23,4.23,0,0,1-4.23,4.23H350.49a4.23,4.23,0,0,1-4.23-4.23V372.64A11.74,11.74,0,0,1,358,360.9h39.87A11.74,11.74,0,0,1,409.6,372.64Z"/></g></g></svg>