<svg xmlns="http://www.w3.org/2000/svg" viewBox="0 0 477.73 512"><defs><style>.cls-1{fill:#e0457b;}.cls-2{fill:#d9d8d7;}</style></defs><title>secure</title><g id="Layer_2" data-name="Layer 2"><g id="Layer_1-2" data-name="Layer 1"><path class="cls-1" d="M332.34,201.09H317.91c-4.49-43.45-37.7-77.31-77.87-77.31s-73.39,33.86-77.87,77.31h-16a10,10,0,0,0-10,10v159a10,10,0,0,0,10,10H332.34a10,10,0,0,0,10.05-10v-159A10,10,0,0,0,332.34,201.09ZM264.81,327.36l-49.52-.05,12.42-21.47a24.71,24.71,0,1,1,24.72,0Zm22.13-126.27H182.39c4.21-32.34,28.46-57.22,57.65-57.22s53.43,24.88,57.65,57.22Z"/><path class="cls-2" d="M336.14,174.59h42.74a10.05,10.05,0,0,0,10.05-10.05V131.39a8.11,8.11,0,0,0-.05-.86,31.13,31.13,0,1,0-20,0c0,.28,0,.57,0,.86V154.5h-32.7a10,10,0,1,0,0,20.09Zm31.7-73.54a11,11,0,1,1,11,11A11.06,11.06,0,0,1,367.84,101.05Z"/><path class="cls-2" d="M108.43,355.41H65.68a10,10,0,0,0-10,10v33.15c0,.29,0,.58,0,.86a31.14,31.14,0,1,0,20,0,8.11,8.11,0,0,0,0-.86V375.5h32.7a10,10,0,0,0,0-20.09ZM76.73,429a11,11,0,1,1-11-11.05A11.07,11.07,0,0,1,76.73,429Z"/><path class="cls-2" d="M421.29,399.47c0-.28,0-.57,0-.86V365.46a10,10,0,0,0-10-10H368.54a10,10,0,0,0,0,20.09h32.7v23.11a8.11,8.11,0,0,0,.05.86,31.13,31.13,0,1,0,20,0Zm-10,40.53a11.05,11.05,0,1,1,11-11.05A11.07,11.07,0,0,1,411.29,440Z"/><path class="cls-2" d="M92.18,140.17v24.37a10,10,0,0,0,10,10.05H145a10,10,0,1,0,0-20.09h-32.7V140.17a40.39,40.39,0,1,0-20.09,0Zm10-59.41a20.29,20.29,0,1,1-20.29,20.29A20.32,20.32,0,0,1,102.22,80.76Z"/><path class="cls-2" d="M181.62,79.49v33.08a10,10,0,1,0,20.08,0V79.49a40.38,40.38,0,1,0-20.08,0Zm10-59.4a20.29,20.29,0,1,1-20.29,20.29A20.31,20.31,0,0,1,191.66,20.09Z"/><path class="cls-2" d="M278.41,69.86c0,.28,0,.57,0,.85v41.86a10,10,0,0,0,20.09,0V70.71a8.08,8.08,0,0,0,0-.85,31.13,31.13,0,1,0-20,0Zm10-40.53a11.05,11.05,0,1,1-11,11.05A11.07,11.07,0,0,1,288.41,29.33Z"/><path class="cls-2" d="M437.36,222.76a40.44,40.44,0,0,0-39.12,30.33H365.17a10,10,0,0,0,0,20.09h33.07a40.38,40.38,0,1,0,39.12-50.42Zm0,60.67a20.3,20.3,0,1,1,20.28-20.29A20.31,20.31,0,0,1,437.36,283.43Z"/><path class="cls-2" d="M112.57,253.09H79.49a40.39,40.39,0,1,0,0,20.09h33.08a10,10,0,0,0,0-20.09ZM40.38,283.43a20.3,20.3,0,1,1,20.29-20.29A20.31,20.31,0,0,1,40.38,283.43Z"/><path class="cls-2" d="M298.46,432.51V399.43a10,10,0,0,0-20.09,0v33.08a40.38,40.38,0,1,0,20.09,0Zm-10,59.4a20.29,20.29,0,1,1,20.3-20.29A20.31,20.31,0,0,1,288.41,491.91Z"/><path class="cls-2" d="M201.66,442.14c0-.28,0-.57,0-.85V399.43a10,10,0,0,0-20.09,0v41.86a8.08,8.08,0,0,0,0,.85,31.13,31.13,0,1,0,20,0Zm-10,40.53a11.05,11.05,0,1,1,11.05-11.05A11.07,11.07,0,0,1,191.66,482.67Z"/><path d="M239.07,380.13a10.33,10.33,0,0,1-1.66.14,10,10,0,0,1-1.64-.14Z"/></g></g></svg>