<svg xmlns="http://www.w3.org/2000/svg" viewBox="0 0 408.18 152.59"><defs><style>.cls-1{fill:#25282a;}</style></defs><title>vex_logo_b_h</title><g id="Layer_2" data-name="Layer 2"><g id="logo_horizontal"><g id="L_h_ghost"><path class="cls-1" d="M162.67,67.54A71.22,71.22,0,0,0,91.55,0c-1.71,0-3.4.08-5.08.2a71.2,71.2,0,0,0-66.12,71H0a81.38,81.38,0,0,0,162.67,3.66q.09-1.82.09-3.66C162.76,70,162.72,68.76,162.67,67.54ZM81.38,142.42a71.21,71.21,0,0,1-70.47-61H30.52V71.21a61,61,0,0,1,122-3.14c.05,1,.08,2.08.08,3.14s0,2.1-.08,3.14a71.2,71.2,0,0,1-66,67.87C84.79,142.33,83.09,142.42,81.38,142.42Z"/><circle class="cls-1" cx="81.38" cy="71.21" r="10.17"/><circle class="cls-1" cx="122.07" cy="71.21" r="10.17"/></g><g id="l_h_type"><path class="cls-1" d="M257.51,71.24,225,147.18H214.74l-32.4-75.94h12.18l25.4,59.42,25.41-59.42Z"/><path class="cls-1" d="M296.08,70.47A36.43,36.43,0,0,1,323,81.81a37.89,37.89,0,0,1,11.13,27.44V115H269.91a26.64,26.64,0,0,0,9.24,15.39,26.29,26.29,0,0,0,30.72,2.24,27.28,27.28,0,0,0,9.8-10.78L329.89,127a37.74,37.74,0,0,1-14.07,15.33,37.74,37.74,0,0,1-46.75-5.74,37.79,37.79,0,0,1-11.13-27.36,37.89,37.89,0,0,1,11.13-27.44A36.57,36.57,0,0,1,296.08,70.47Zm26,33a26.74,26.74,0,0,0-9.24-15.4,25.94,25.94,0,0,0-33.73,0,26.63,26.63,0,0,0-9.24,15.4Z"/><path class="cls-1" d="M345,71.24l24.56,31.43L394,71.24h14.21l-30.45,39.2,29.12,36.74H392.64l-23.1-29-23.09,29H332.17l29.18-36.74-30.58-39.2Z"/></g></g></g></svg>