<svg xmlns="http://www.w3.org/2000/svg" viewBox="0 0 1018.17 1018.17"><defs><style>.cls-1{fill:#ffe7c7;}.cls-2{fill:#4d9ad4;}.cls-3{fill:#d45970;}.cls-4{fill:#75b243;}.cls-5{fill:#fec677;}.cls-6{fill:#d6cce0;}.cls-7{fill:none;}</style></defs><title>animation-2-4</title><g id="Layer_2" data-name="Layer 2"><g id="Layer_1-2" data-name="Layer 1"><g id="Group_100" data-name="Group 100"><rect id="Rectangle_28" data-name="Rectangle 28" class="cls-1" x="306.4" y="168.43" width="464.06" height="426.23"/></g><g id="Group_101" data-name="Group 101"><path id="Path_126" data-name="Path 126" class="cls-2" d="M741.09,180.34,758.74,211l-35.36,0Z"/></g><g id="Group_102" data-name="Group 102"><circle id="Ellipse_42" data-name="Ellipse 42" class="cls-3" cx="696.45" cy="194.42" r="16.96"/></g><g id="Group_103" data-name="Group 103"><rect id="Rectangle_29" data-name="Rectangle 29" class="cls-4" x="631.85" y="178.81" width="32.06" height="32.06"/></g><g id="Group_104" data-name="Group 104"><path id="Path_127" data-name="Path 127" class="cls-5" d="M306.06,225.35l488.78.48a1.79,1.79,0,0,0,1.81-1.8,1.82,1.82,0,0,0-1.81-1.82l-488.78-.48a1.81,1.81,0,1,0,0,3.62Z"/></g><g id="Group_112" data-name="Group 112"><path id="Path_133" data-name="Path 133" class="cls-6" d="M975.08,595.08a3,3,0,0,0,3-3h0c0-11.22-8.92-16.77-16.8-21.66-7.47-4.64-13.93-8.65-13.92-16.49s6.47-11.83,14-16.46c7.89-4.88,16.83-10.41,16.84-21.63s-8.92-16.77-16.8-21.66c-7.48-4.64-13.93-8.65-13.93-16.48s6.48-11.84,14-16.47c7.89-4.88,16.83-10.4,16.84-21.63s-8.92-16.77-16.8-21.66c-7.47-4.64-13.93-8.65-13.92-16.49s6.47-11.84,14-16.47c7.89-4.88,16.83-10.4,16.84-21.63s-8.92-16.77-16.8-21.66c-7.48-4.64-13.93-8.65-13.93-16.49s6.48-11.84,14-16.47c7.89-4.88,16.83-10.41,16.84-21.63s-8.92-16.78-16.8-21.67c-7.47-4.64-13.93-8.66-13.92-16.49a3,3,0,1,0-6.08,0v0c0,11.22,8.92,16.77,16.8,21.67,7.47,4.64,13.93,8.65,13.92,16.49s-6.47,11.84-14,16.47c-7.89,4.88-16.83,10.4-16.84,21.63s8.92,16.77,16.8,21.66c7.48,4.65,13.93,8.66,13.93,16.49s-6.48,11.84-14,16.47c-7.89,4.88-16.83,10.41-16.84,21.63s8.92,16.77,16.8,21.66c7.47,4.65,13.93,8.66,13.92,16.49s-6.47,11.84-14,16.47c-7.89,4.88-16.83,10.4-16.84,21.63s8.92,16.76,16.8,21.66c7.48,4.64,13.93,8.65,13.93,16.49s-6.48,11.83-14,16.46c-7.89,4.87-16.83,10.4-16.84,21.63s8.92,16.76,16.8,21.66c7.47,4.64,13.93,8.65,13.92,16.49A3,3,0,0,0,975.08,595.08Z"/></g><rect class="cls-7" x="0.5" y="0.5" width="1017.17" height="1017.17"/></g></g></svg>