<svg xmlns="http://www.w3.org/2000/svg" viewBox="0 0 1018.17 1018.17"><defs><style>.cls-1{fill:#d6cce0;}.cls-2{fill:#f6891f;}.cls-3{fill:#582d83;}.cls-4{fill:none;}</style></defs><title>animation-2-3</title><g id="Layer_2" data-name="Layer 2"><g id="Layer_1-2" data-name="Layer 1"><g id="Group_105" data-name="Group 105"><path id="Path_128" data-name="Path 128" class="cls-1" d="M97.46,696.05l241.43.24a36.64,36.64,0,0,0,36.68-36.61l.24-241.43a36.64,36.64,0,0,0-36.61-36.68h0l-241.43-.24a36.64,36.64,0,0,0-36.68,36.61h0l-.24,241.44A36.64,36.64,0,0,0,97.46,696.05Z"/></g><g id="Group_109" data-name="Group 109"><circle id="Ellipse_44" data-name="Ellipse 44" class="cls-2" cx="650.12" cy="281.81" r="43.55"/></g><g id="Group_111" data-name="Group 111"><path id="Path_132" data-name="Path 132" class="cls-3" d="M51,617a3.25,3.25,0,0,1-2.29-5.56l65.1-65a3.26,3.26,0,0,1,4.6,0l23.8,23.84,82.6-82.44a3.27,3.27,0,0,1,4.61,0l35,35.08,83.24-83.07a3.25,3.25,0,0,1,4.6,0h0L389,476.75a3.25,3.25,0,0,1-4.6,4.6L350,446.81l-83.25,83.08a3.25,3.25,0,0,1-4.6,0l-35-35.09L144.5,577.25a3.26,3.26,0,0,1-4.6,0L116.1,553.4,53.31,616.08A3.26,3.26,0,0,1,51,617Z"/></g><rect class="cls-4" x="0.5" y="0.5" width="1017.17" height="1017.17"/></g></g></svg>