<svg xmlns="http://www.w3.org/2000/svg" viewBox="0 0 1018.17 1018.17"><defs><style>.cls-1{fill:#ed5123;}.cls-2{fill:#ffe7c7;}.cls-3{fill:#d52f6a;}.cls-4,.cls-5{fill:#75b243;}.cls-5{fill-rule:evenodd;}.cls-6{fill:#fff;}.cls-7{fill:#2b6b52;}.cls-8{fill:none;}</style></defs><title>animation-2-2</title><g id="Layer_2" data-name="Layer 2"><g id="Layer_1-2" data-name="Layer 1"><g id="Group_114" data-name="Group 114"><rect id="Rectangle_30" data-name="Rectangle 30" class="cls-1" x="364.83" y="477.98" width="15.3" height="141.09" transform="translate(-275 405.75) rotate(-43.39)"/></g><g id="Group_115" data-name="Group 115"><path id="Path_135" data-name="Path 135" class="cls-2" d="M315,487.74l14.66,4.38-11.12,10.5Z"/></g><g id="Group_116" data-name="Group 116"><path id="Path_136" data-name="Path 136" class="cls-1" d="M320.54,489.38l-4.18,3.94L315,487.74Z"/></g><g id="Group_106" data-name="Group 106"><path id="Path_129" data-name="Path 129" class="cls-3" d="M607.66,527.16C479.69,527,479.44,784.46,492,807.24s206,19.51,220.27.21S732.3,527.28,607.66,527.16Z"/></g><g id="Group_107" data-name="Group 107"><path class="cls-4" d="M682.21,413.69a69.64,69.64,0,0,1-139.28-.14c0-2,.1-4,.27-6a10,10,0,0,0,4.33-18.84,69.64,69.64,0,0,1,134.68,25Z"/></g><g id="Group_110" data-name="Group 110"><path id="Path_131" data-name="Path 131" class="cls-5" d="M581.14,566.86a41.81,41.81,0,1,0-41.84,41.77h0a41.8,41.8,0,0,0,41.84-41.76Z"/></g><g id="Group_113" data-name="Group 113"><path id="Path_134" data-name="Path 134" class="cls-5" d="M417.11,566.7a41.81,41.81,0,1,0-41.84,41.76h0a41.79,41.79,0,0,0,41.84-41.75Z"/></g><g id="Group_117" data-name="Group 117"><path id="Path_137" data-name="Path 137" class="cls-6" d="M609,826.07h0a3,3,0,0,0,3-3.07A119.82,119.82,0,0,0,492.31,704.46l-2.94,0a3,3,0,0,0,.14,6.09q1.39,0,2.79,0c62,.06,113,50.53,113.62,112.52A3,3,0,0,0,609,826.07Z"/></g><g id="Group_118" data-name="Group 118"><path id="Path_138" data-name="Path 138" class="cls-6" d="M705.49,744.56a122.12,122.12,0,0,0,14.43-.84,3,3,0,1,0-.72-6h0a116.18,116.18,0,0,1-13.7.8,113.75,113.75,0,0,1-68.8-204.23,3,3,0,0,0-3.69-4.83A119.82,119.82,0,0,0,705.5,744.56Z"/></g><circle id="Ellipse_41" data-name="Ellipse 41" class="cls-7" cx="586.01" cy="397.64" r="9.99"/><path class="cls-7" d="M552.94,397.6a10,10,0,0,1-9.74,10,68.26,68.26,0,0,1,4.33-18.84A10,10,0,0,1,552.94,397.6Z"/><rect class="cls-8" x="0.5" y="0.5" width="1017.17" height="1017.17"/></g></g></svg>