<svg xmlns="http://www.w3.org/2000/svg" viewBox="0 0 1018.17 1018.17"><defs><style>.cls-1{fill:#f0eded;}.cls-2{fill:#9a9998;}.cls-3{fill:none;}</style></defs><title>animation-2-0</title><g id="Layer_2" data-name="Layer 2"><g id="Layer_1-2" data-name="Layer 1"><g id="Group_98" data-name="Group 98"><g id="Group_97" data-name="Group 97"><path id="Path_124" data-name="Path 124" class="cls-1" d="M277.08,319.85c-88.6,48.72-200.17,114.21-216,195.52s64,178.62,152.47,254.79C302,846.51,399.22,901.91,481.82,887.53S632.65,789,719.29,712.82c86.46-76.18,191.17-144.21,212.58-233.64S891.22,278.89,804.88,230s-197.13-35.8-285.35-13.3S365.68,271.15,277.08,319.85Z"/></g></g><g id="Group_99" data-name="Group 99"><path id="Path_125" data-name="Path 125" class="cls-2" d="M207.67,770.66a2.58,2.58,0,0,1-.2-2.75l307.76-572.2a2.58,2.58,0,0,1,4.14-.55L930.54,628a2.58,2.58,0,0,1-.1,3.65,2.55,2.55,0,0,1-1.28.66L210.23,771.66a2.72,2.72,0,0,1-.49.05A2.56,2.56,0,0,1,207.67,770.66ZM518.08,201.3,214.6,765.56,923.55,628.11Z"/></g><rect class="cls-3" x="0.5" y="0.5" width="1017.17" height="1017.17"/></g></g></svg>