<svg xmlns="http://www.w3.org/2000/svg" viewBox="0 0 1018.17 1018.17"><defs><style>.cls-1{fill:#25282a;}.cls-2{fill:#fff;}.cls-3{fill:#dbd9d8;}.cls-4{fill:none;}</style></defs><title>animation-3-2</title><g id="Layer_2" data-name="Layer 2"><g id="Layer_1-2" data-name="Layer 1"><g id="macbook-pro-wire"><path id="Path_2" data-name="Path 2" class="cls-1" d="M894.49,751.94H116V353.74c0-25.52,23.41-46.2,52.29-46.2H842.2c28.88,0,52.29,20.68,52.29,46.2Z"/><path id="Path_3" data-name="Path 3" class="cls-2" d="M876.81,750.4H133.66V359.48c0-17.3,15.9-31.33,35.53-31.33H841.28c19.62,0,35.53,14,35.53,31.33Z"/><ellipse id="Ellipse_1" data-name="Ellipse 1" class="cls-2" cx="505.23" cy="317.88" rx="3.84" ry="3.47"/><path id="Path_5" data-name="Path 5" class="cls-2" d="M13.45,767V755.24a4.68,4.68,0,0,1,4.49-4.84H992.52a4.68,4.68,0,0,1,4.5,4.84V767Z"/><path id="Path_6" data-name="Path 6" class="cls-3" d="M28.68,780.73,13.45,767H997l-17.68,15.9a2.87,2.87,0,0,1-1.9.74H36.2A11.23,11.23,0,0,1,28.68,780.73Z"/><path id="Path_7" data-name="Path 7" class="cls-1" d="M570.44,754.83H440a4.69,4.69,0,0,1-4.91-4.43H575.35A4.69,4.69,0,0,1,570.44,754.83Z"/></g><rect class="cls-4" x="0.5" y="0.5" width="1017.17" height="1017.17"/></g></g></svg>