<svg xmlns="http://www.w3.org/2000/svg" viewBox="0 0 1018.17 1018.17"><defs><style>.cls-1{fill:#d6cce0;}.cls-2{fill:#f2f1f0;}.cls-3{fill:none;}</style></defs><title>animation-3-0</title><g id="Layer_2" data-name="Layer 2"><g id="Layer_1-2" data-name="Layer 1"><g id="Group_128" data-name="Group 128"><path id="Path_133" data-name="Path 133" class="cls-1" d="M715.79,313.61a2.15,2.15,0,0,0,1.05-2.86h0c-3.37-7.22-10.78-8.1-17.31-8.88-6.2-.74-11.56-1.38-13.91-6.42s.61-9.55,4-14.77c3.6-5.51,7.69-11.75,4.33-19s-10.78-8.1-17.31-8.88c-6.2-.74-11.56-1.37-13.91-6.41s.61-9.55,4-14.78c3.6-5.5,7.69-11.74,4.32-19s-10.77-8.1-17.3-8.87c-6.2-.74-11.56-1.38-13.91-6.42s.6-9.55,4-14.78c3.61-5.5,7.7-11.74,4.33-19s-10.77-8.1-17.31-8.88c-6.2-.74-11.55-1.37-13.9-6.41s.6-9.56,4-14.78c3.6-5.51,7.69-11.75,4.32-19s-10.77-8.1-17.3-8.87c-6.2-.74-11.56-1.38-13.91-6.42a2.16,2.16,0,0,0-3.92,1.81h0c3.36,7.22,10.77,8.1,17.31,8.88,6.2.74,11.55,1.37,13.9,6.42s-.6,9.55-4,14.77c-3.6,5.51-7.69,11.75-4.33,19s10.78,8.1,17.31,8.88c6.2.73,11.56,1.37,13.91,6.41s-.6,9.55-4,14.78c-3.61,5.51-7.7,11.75-4.33,19s10.77,8.1,17.31,8.88c6.2.74,11.55,1.37,13.9,6.41s-.6,9.55-4,14.78c-3.61,5.51-7.69,11.75-4.33,19s10.77,8.1,17.31,8.88c6.2.74,11.56,1.37,13.91,6.41s-.61,9.55-4,14.78c-3.61,5.5-7.69,11.74-4.33,19s10.78,8.1,17.31,8.87c6.2.74,11.56,1.38,13.91,6.42A2.15,2.15,0,0,0,715.79,313.61Z"/></g><path id="Path_141" data-name="Path 141" class="cls-2" d="M408.11,229.25c161.84,0,293,131.2,293,293,0,122.19,22,179.83-51.27,253.09s-202.11,39.94-241.76,39.94c-161.84,0-293-131.19-293-293,0-108.11-73.47-155.23-28.1-234.2C168.55,206.5,354.38,229.25,408.11,229.25Z"/><rect class="cls-3" x="0.5" y="0.5" width="1017.17" height="1017.17"/></g></g></svg>