<svg xmlns="http://www.w3.org/2000/svg" viewBox="0 0 1237.18 1237.18"><defs><style>.cls-1{fill:#f0eded;}.cls-2{fill:#9a9998;}.cls-3{fill:none;}</style></defs><title>animation-1-0</title><g id="Layer_2" data-name="Layer 2"><g id="Layer_1-2" data-name="Layer 1"><g id="Group_138" data-name="Group 138"><g id="Group_132" data-name="Group 132"><circle id="Ellipse_9" data-name="Ellipse 9" class="cls-1" cx="917.53" cy="384.38" r="128"/><g id="Group_64" data-name="Group 64"><g id="Group_63" data-name="Group 63"><path id="Path_107" data-name="Path 107" class="cls-1" d="M338.93,453.62c-38.24,77.19,12.92,196.63,49.24,305.07s57.63,205.88,117.7,242.2c59.9,36.32,158.73,11.7,238.36-33.88,79.45-45.57,139.87-112.1,186.14-211.46C976.82,656.19,1009,524,957.09,443.67,905.05,363.52,769,335.23,637,338.55,505.17,341.69,377.17,376.62,338.93,453.62Z"/></g></g></g><g id="Group_65" data-name="Group 65"><path id="Path_108" data-name="Path 108" class="cls-2" d="M543,834.89a1.93,1.93,0,0,1-.26-2.06L765.43,362.61a2,2,0,0,1,2.58-.93,2,2,0,0,1,.68.54l278.65,344.54a1.94,1.94,0,0,1-.28,2.73,2.11,2.11,0,0,1-.75.37L544.91,835.54a1.93,1.93,0,0,1-2-.65ZM767.62,367.06,548,830.78l494.47-123.94Z"/></g></g><rect class="cls-3" width="1237.18" height="1237.18"/></g></g></svg>