<svg xmlns="http://www.w3.org/2000/svg" viewBox="0 0 1237.18 1237.18"><defs><style>.cls-1{fill:#676766;}.cls-1,.cls-6,.cls-7{fill-rule:evenodd;}.cls-2,.cls-6{fill:#75b243;}.cls-3{fill:#f6891f;}.cls-4{fill:#d52f6a;}.cls-5{fill:#fff;}.cls-7{fill:#aacc63;}.cls-8{fill:#2b6b52;}.cls-9{fill:none;}</style></defs><title>animation-1-1</title><g id="Layer_2" data-name="Layer 2"><g id="Layer_1-2" data-name="Layer 1"><g id="Group_136" data-name="Group 136"><g id="Group_66" data-name="Group 66"><path id="Path_109" data-name="Path 109" class="cls-1" d="M713.84,899.92a115.29,115.29,0,0,1,123.31,106.67h0l-230,16.65A115.31,115.31,0,0,1,713.84,899.92Z"/></g><g id="Group_67" data-name="Group 67"><circle id="Ellipse_27" data-name="Ellipse 27" class="cls-2" cx="645.73" cy="480.75" r="64.57"/></g><g id="Group_68" data-name="Group 68"><circle id="Ellipse_28" data-name="Ellipse 28" class="cls-3" cx="610.62" cy="358.62" r="40.38"/></g><g id="Group_69" data-name="Group 69"><path id="Path_110" data-name="Path 110" class="cls-4" d="M831.4,624.2,723.7,973.89,517.18,668.55Z"/></g><g id="Group_74" data-name="Group 74"><path id="Path_113" data-name="Path 113" class="cls-5" d="M753.45,880.56a3.25,3.25,0,0,0,1.64-6.06,164,164,0,0,0-82.7-22.33,166.12,166.12,0,0,0-27.8,2.35,3.26,3.26,0,0,0,1.1,6.42,159.24,159.24,0,0,1,26.7-2.26,157.61,157.61,0,0,1,79.42,21.44A3.25,3.25,0,0,0,753.45,880.56Z"/></g><g id="Group_75" data-name="Group 75"><path id="Path_114" data-name="Path 114" class="cls-5" d="M767.86,834.47a3.26,3.26,0,0,0,1.69-6A164.5,164.5,0,0,0,619.1,818.17a3.26,3.26,0,0,0,2.6,6A157.92,157.92,0,0,1,766.17,834,3.24,3.24,0,0,0,767.86,834.47Z"/></g><g id="Group_76" data-name="Group 76"><path id="Path_115" data-name="Path 115" class="cls-5" d="M588.5,777.25a3.29,3.29,0,0,0,.54,0A164.28,164.28,0,0,0,723.8,640.33a3.25,3.25,0,0,0-6.43-1A157.12,157.12,0,0,1,588,770.78a3.26,3.26,0,0,0,.54,6.47Z"/></g><g id="Group_77" data-name="Group 77"><path id="Path_116" data-name="Path 116" class="cls-6" d="M838.62,842.68a43.48,43.48,0,1,0-43.48,43.48h0A43.48,43.48,0,0,0,838.62,842.68Z"/></g><g id="Group_94" data-name="Group 94"><path id="Path_122" data-name="Path 122" class="cls-7" d="M718.25,555.07a43.48,43.48,0,1,0-43.47,43.48A43.46,43.46,0,0,0,718.25,555.07Z"/></g><g id="Group_95" data-name="Group 95"><path id="Path_123" data-name="Path 123" class="cls-5" d="M580.68,699.24a7.59,7.59,0,0,0,1.07-.07l75.74-10.69a7.61,7.61,0,1,0-2-15.09l-.14,0L579.63,684.1a7.61,7.61,0,0,0,1,15.14Z"/></g><circle id="Ellipse_40" data-name="Ellipse 40" class="cls-8" cx="631.3" cy="465.15" r="9.14"/><circle id="Ellipse_41" data-name="Ellipse 41" class="cls-8" cx="674.28" cy="450.95" r="9.99"/></g><rect class="cls-9" width="1237.18" height="1237.18"/></g></g></svg>