<svg xmlns="http://www.w3.org/2000/svg" viewBox="0 0 865.07 872.02"><defs><style>.cls-1{fill:#d6cce0;}.cls-2,.cls-3{fill:#219d7b;}.cls-3{fill-rule:evenodd;}.cls-4{fill:#676766;}.cls-5{fill:#f6891f;}</style></defs><title>animation-1-2</title><g id="Layer_2" data-name="Layer 2"><g id="Layer_1-2" data-name="Layer 1"><g id="Group_139" data-name="Group 139"><g id="Group_123" data-name="Group 123"><path id="Path_140" data-name="Path 140" class="cls-1" d="M15.25,870.11c.94,1.61,2.68,2.35,3.9,1.64,8.16-4.71,7.24-15.62,6.42-25.24-.77-9.12-1.44-17,4.26-20.3s12.19,1.23,19.71,6.47c7.92,5.52,16.9,11.77,25.06,7.06S81.84,824.12,81,814.5c-.77-9.13-1.44-17,4.26-20.3s12.19,1.23,19.71,6.46c7.92,5.52,16.9,11.78,25.06,7.06s7.24-15.62,6.42-25.23c-.77-9.13-1.44-17,4.26-20.31s12.2,1.23,19.71,6.47c7.92,5.52,16.91,11.77,25.07,7.05s7.24-15.61,6.42-25.23c-.77-9.13-1.44-17,4.26-20.3s12.2,1.23,19.71,6.46c7.92,5.52,16.91,11.77,25.07,7s7.24-15.61,6.42-25.23c-.77-9.13-1.44-17,4.26-20.3,1.23-.71,1.46-2.59.53-4.2s-2.67-2.35-3.9-1.64c-8.16,4.71-7.24,15.61-6.42,25.24.77,9.12,1.44,17-4.26,20.3s-12.19-1.23-19.71-6.46c-7.92-5.52-16.91-11.77-25.07-7.06s-7.24,15.62-6.42,25.24c.77,9.12,1.44,17-4.26,20.3s-12.19-1.23-19.71-6.47c-7.92-5.51-16.9-11.77-25.07-7s-7.24,15.61-6.42,25.23c.78,9.13,1.44,17-4.26,20.3s-12.19-1.23-19.71-6.46c-7.92-5.52-16.9-11.77-25.06-7.06S74.67,804,75.49,813.6c.77,9.13,1.44,17-4.26,20.3S59,832.67,51.52,827.44c-7.92-5.52-16.9-11.78-25.06-7.06S19.22,836,20,845.61c.77,9.13,1.44,17-4.26,20.3C14.56,866.62,14.32,868.5,15.25,870.11Z"/></g><g id="Group_135" data-name="Group 135"><path id="Path_140-2" data-name="Path 140-2" class="cls-1" d="M32.62,20.51c-.79,1.69-.39,3.54.89,4.13,8.54,4,16.94-3,24.35-9.21C64.9,9.56,71,4.49,76.94,7.27s6,10.7,6,19.85c0,9.66.06,20.6,8.6,24.58s16.94-3,24.35-9.21c7-5.87,13.11-10.94,19.07-8.16s6,10.7,6,19.85c0,9.66.06,20.6,8.6,24.59s16.94-3,24.35-9.22C181,63.68,187,58.61,193,61.4s6,10.69,6,19.85c0,9.65.05,20.59,8.6,24.58s16.94-3,24.35-9.22c7-5.87,13.11-10.94,19.07-8.15s6,10.69,6,19.85c0,9.65.05,20.6,8.59,24.58s16.95-3,24.36-9.21c7-5.87,13.11-10.94,19.08-8.16,1.27.6,2.95-.28,3.73-2s.39-3.54-.89-4.14c-8.54-4-16.94,3-24.35,9.22-7,5.87-13.11,10.94-19.08,8.15s-6-10.69-6-19.85c0-9.65-.05-20.6-8.6-24.58s-16.94,3-24.35,9.21c-7,5.87-13.11,10.94-19.08,8.16s-6-10.69-6-19.85c0-9.66-.05-20.6-8.59-24.58s-16.95,3-24.36,9.21c-7,5.87-13.11,10.94-19.07,8.16s-6-10.7-6-19.86c0-9.65-.06-20.59-8.6-24.58s-16.94,3-24.35,9.22c-7,5.87-13.11,10.94-19.07,8.16s-6-10.7-6-19.86c0-9.65,0-20.59-8.6-24.57s-16.94,3-24.35,9.21c-7,5.87-13.11,10.94-19.07,8.16C35.08,17.94,33.41,18.82,32.62,20.51Z"/></g><g id="Group_134" data-name="Group 134"><g id="Group_70" data-name="Group 70"><rect id="Rectangle_26" data-name="Rectangle 26" class="cls-2" x="673.76" y="201.6" width="191.31" height="103.89"/></g><g id="Group_71" data-name="Group 71"><path id="Path_111" data-name="Path 111" class="cls-3" d="M717,305.49l-43.23,50.68V242.3Z"/></g></g><g id="Group_133" data-name="Group 133"><g id="Group_72" data-name="Group 72"><path id="Path_112" data-name="Path 112" class="cls-3" d="M299,211.1l43.24,50.68V168.23Z"/></g><g id="Group_73" data-name="Group 73"><rect id="Rectangle_27" data-name="Rectangle 27" class="cls-2" x="150.78" y="141.42" width="191.31" height="69.83"/></g></g><g id="Group_131" data-name="Group 131"><g id="Group_78" data-name="Group 78"><ellipse id="Ellipse_29" data-name="Ellipse 29" class="cls-4" cx="165.39" cy="591.98" rx="20.91" ry="93.76" transform="translate(-419.34 402.55) rotate(-56.44)"/></g><g id="Group_130" data-name="Group 130"><g id="Group_79" data-name="Group 79"><path id="Path_117" data-name="Path 117" class="cls-5" d="M153.51,610.25a2.84,2.84,0,0,0,2.84-2.77c.62-23.87-12.64-73-33-122.16-22.94-55.43-48.71-97.18-70.71-114.54a2.84,2.84,0,0,0-3.52,4.46c21.25,16.78,46.4,57.7,69,112.25,20.09,48.54,33.18,96.69,32.57,119.83a2.85,2.85,0,0,0,2.77,2.92h.08Z"/></g><g id="Group_80" data-name="Group 80"><ellipse id="Ellipse_30" data-name="Ellipse 30" class="cls-5" cx="64.14" cy="352.23" rx="10.14" ry="34.21"/></g><g id="Group_81" data-name="Group 81"><ellipse id="Ellipse_31" data-name="Ellipse 31" class="cls-5" cx="32.07" cy="370.8" rx="10.14" ry="34.21" transform="translate(-324.9 265.5) rotate(-68.62)"/></g><g id="Group_82" data-name="Group 82"><ellipse id="Ellipse_32" data-name="Ellipse 32" class="cls-5" cx="49.61" cy="404.67" rx="10.13" ry="34.21" transform="translate(-357.31 379.38) rotate(-79.45)"/></g><g id="Group_83" data-name="Group 83"><ellipse id="Ellipse_33" data-name="Ellipse 33" class="cls-5" cx="64.14" cy="433.12" rx="10.14" ry="34.21" transform="translate(-370.74 483.91) rotate(-88.24)"/></g><g id="Group_84" data-name="Group 84"><ellipse id="Ellipse_34" data-name="Ellipse 34" class="cls-5" cx="75.35" cy="457.42" rx="34.21" ry="10.14"/></g><g id="Group_85" data-name="Group 85"><ellipse id="Ellipse_35" data-name="Ellipse 35" class="cls-5" cx="88.31" cy="484.62" rx="34.21" ry="10.14"/></g><g id="Group_86" data-name="Group 86"><ellipse id="Ellipse_36" data-name="Ellipse 36" class="cls-5" cx="90.14" cy="378.07" rx="34.21" ry="10.13" transform="translate(-298.04 397.5) rotate(-79.45)"/></g><g id="Group_87" data-name="Group 87"><ellipse id="Ellipse_37" data-name="Ellipse 37" class="cls-5" cx="111.7" cy="404.68" rx="34.21" ry="10.14" transform="translate(-305.86 361.18) rotate(-68.62)"/></g><g id="Group_88" data-name="Group 88"><ellipse id="Ellipse_38" data-name="Ellipse 38" class="cls-5" cx="129.42" cy="432.54" rx="34.21" ry="10.14" transform="translate(-297.83 286.6) rotate(-54.48)"/></g><g id="Group_89" data-name="Group 89"><ellipse id="Ellipse_39" data-name="Ellipse 39" class="cls-5" cx="145.9" cy="462.96" rx="34.21" ry="10.14" transform="translate(-277.79 226.09) rotate(-43.3)"/></g></g><g id="Group_129" data-name="Group 129"><g id="Group_90" data-name="Group 90"><path id="Path_118" data-name="Path 118" class="cls-2" d="M160.17,613.2a3.25,3.25,0,0,0,3.24-3c1.56-16.78,17.45-46.68,40.48-76.18,24.48-31.34,50.7-54.36,70.14-61.59a3.26,3.26,0,0,0-2.27-6.1c-20.52,7.63-47.81,31.44-73,63.69-24.12,30.87-40.15,61.37-41.84,79.58a3.26,3.26,0,0,0,2.94,3.54Z"/></g><g id="Group_91" data-name="Group 91"><path id="Path_119" data-name="Path 119" class="cls-3" d="M263.9,460.66l-30.3-43.08,52.46-4.7Z"/></g><g id="Group_92" data-name="Group 92"><path id="Path_120" data-name="Path 120" class="cls-3" d="M228.29,486.46l-49.84-17,39.67-34.64Z"/></g><g id="Group_93" data-name="Group 93"><path id="Path_121" data-name="Path 121" class="cls-3" d="M270.25,549.55l-17.52-49.67,51.78,9.67Z"/></g></g></g></g></g></g></svg>