<svg xmlns="http://www.w3.org/2000/svg" viewBox="0 0 180.01 180.01"><defs><style>.cls-1{fill:#171717;}.cls-2{fill:#f2f1f0;}.cls-3{fill:none;}</style></defs><title>vex_contour_square</title><g id="Layer_2" data-name="Layer 2"><g id="logo_isolated"><path class="cls-1" d="M176.5,85.23c0,1.31,0,2.64-.1,4a86.5,86.5,0,0,1-172.9-4v-10H23.28A77.19,77.19,0,0,1,94.08,8.5c2.11-.15,3.84-.21,5.48-.21a76.85,76.85,0,0,1,76.84,73C176.45,82.48,176.5,83.82,176.5,85.23Z"/><path class="cls-2" d="M166.41,81.77A66.94,66.94,0,0,0,99.56,18.28c-1.61,0-3.2.08-4.78.19A66.93,66.93,0,0,0,32.62,85.22H13.5a76.49,76.49,0,0,0,152.91,3.44c.06-1.14.09-2.29.09-3.44S166.46,82.92,166.41,81.77Zm-9.55,6.4A66.93,66.93,0,0,1,94.78,152c-1.58.11-3.17.19-4.78.19A67,67,0,0,1,23.75,94.78H42.19V85.22a57.37,57.37,0,0,1,114.67-3c0,1,.08,2,.08,3S156.91,87.19,156.86,88.17Z"/><circle class="cls-2" cx="90" cy="85.22" r="9.56"/><circle class="cls-2" cx="128.25" cy="85.22" r="9.56"/><rect class="cls-3" width="180.01" height="180.01"/></g></g></svg>